<?xml version="1.0" standalone="no"?>
<!DOCTYPE svg PUBLIC "-//W3C//DTD SVG 20010904//EN"
 "http://www.w3.org/TR/2001/REC-SVG-20010904/DTD/svg10.dtd">
<svg version="1.0" xmlns="http://www.w3.org/2000/svg"
 width="434.000000pt" height="431.000000pt" viewBox="0 0 434.000000 431.000000"
 preserveAspectRatio="xMidYMid meet">

<g transform="translate(0.000000,431.000000) scale(0.100000,-0.100000)"
fill="#000000" stroke="none">
<path d="M865 4263 c-381 -56 -662 -288 -770 -633 -54 -174 -55 -200 -55
-1494 0 -731 4 -1218 10 -1261 6 -38 13 -88 16 -110 10 -70 63 -218 103 -290
134 -239 361 -396 653 -452 86 -17 184 -18 1358 -18 1174 0 1272 1 1358 18
356 68 617 290 721 612 30 91 33 108 51 245 5 45 9 557 9 1260 0 703 -4 1215
-9 1260 -18 134 -21 153 -47 234 -86 278 -298 492 -578 584 -186 62 -191 62
-1517 61 -1007 -1 -1219 -3 -1303 -16z m198 -1468 c75 -44 137 -82 137 -85 0
-4 -105 -67 -322 -193 l-48 -27 0 221 0 221 48 -29 c27 -15 110 -64 185 -108z
m2355 -18 c56 -33 102 -63 102 -66 0 -6 -21 -20 -237 -148 l-123 -72 0 219 0
220 78 -46 c42 -26 123 -73 180 -107z m-2393 -532 c83 -48 155 -93 162 -99 12
-11 -35 -41 -319 -206 l-38 -22 0 222 0 222 23 -14 c12 -8 90 -54 172 -103z
m2322 3 c95 -57 173 -106 173 -109 0 -4 -71 -49 -157 -100 -87 -51 -168 -99
-180 -107 l-23 -14 0 216 c0 119 3 216 7 216 3 0 84 -46 180 -102z m-1544 -46
c-21 -37 -67 -120 -103 -184 -36 -65 -69 -116 -73 -115 -9 3 -206 346 -207
360 0 4 95 7 210 7 l211 0 -38 -68z m1095 60 c-12 -30 -202 -362 -207 -362 -5
0 -198 334 -209 362 -2 4 92 8 208 8 116 0 210 -4 208 -8z m-904 -218 c53 -95
96 -177 96 -183 0 -12 -401 -17 -412 -5 -4 3 32 74 79 157 115 205 124 220
133 210 4 -4 51 -85 104 -179z m549 -1 c54 -94 97 -176 97 -182 0 -13 -406
-16 -413 -3 -3 4 39 84 92 177 117 208 112 199 121 188 4 -4 50 -85 103 -180z
m-1346 -400 c-8 -7 -356 202 -353 212 1 5 81 56 177 112 l174 103 3 -212 c1
-116 1 -213 -1 -215z m2333 212 c0 -118 -3 -215 -7 -215 -15 1 -355 207 -355
214 1 8 340 214 355 215 4 1 7 -96 7 -214z m-1434 -72 c-6 -14 -194 -353 -201
-361 -2 -2 -113 192 -212 371 -2 4 91 7 207 7 194 0 212 -1 206 -17z m526 -15
c-11 -18 -59 -103 -107 -188 -48 -85 -88 -156 -90 -158 -1 -1 -39 64 -85 145
-46 82 -94 167 -107 191 l-25 42 217 0 217 0 -20 -32z m-1559 -113 c75 -44
136 -82 136 -85 0 -3 -61 -41 -136 -85 -75 -44 -158 -93 -185 -108 l-48 -29 0
221 0 221 48 -27 c26 -16 109 -64 185 -108z m2457 -86 c0 -4 -46 -34 -102 -67
-57 -33 -138 -80 -180 -106 l-78 -46 0 220 0 219 180 -107 c99 -58 180 -109
180 -113z m-1253 18 l102 -182 -206 -3 c-113 -1 -208 -1 -210 2 -5 5 197 366
206 366 3 0 52 -82 108 -183z"/>
</g>
</svg>
