<?xml version="1.0" standalone="no"?>
<!DOCTYPE svg PUBLIC "-//W3C//DTD SVG 20010904//EN"
 "http://www.w3.org/TR/2001/REC-SVG-20010904/DTD/svg10.dtd">
<svg version="1.0" xmlns="http://www.w3.org/2000/svg"
 width="386.000000pt" height="323.000000pt" viewBox="0 0 386.000000 323.000000"
 preserveAspectRatio="xMidYMid meet">

<g transform="translate(0.000000,323.000000) scale(0.100000,-0.100000)"
fill="#000000" stroke="none">
<path d="M675 3156 c-98 -31 -150 -79 -185 -173 -19 -49 -21 -72 -17 -148 6
-126 40 -195 119 -244 l27 -17 -94 -198 c-52 -109 -95 -199 -95 -202 0 -2 28
-4 63 -4 l62 0 87 188 87 187 46 3 45 3 0 -190 0 -191 55 0 55 0 0 500 0 500
-107 -1 c-60 0 -126 -6 -148 -13z m145 -300 l0 -224 -57 4 c-118 9 -165 62
-171 194 -6 128 24 195 102 231 23 10 60 19 84 19 l42 0 0 -224z"/>
<path d="M2264 2871 c-50 -23 -88 -70 -117 -147 -19 -51 -22 -79 -22 -214 0
-141 2 -160 23 -205 28 -60 75 -112 121 -131 64 -27 199 -11 253 30 15 11 16
18 6 49 -6 20 -15 37 -19 37 -4 0 -26 -9 -50 -20 -125 -56 -213 10 -221 168
l-3 53 148 0 c113 0 149 3 153 13 8 22 -14 209 -31 256 -38 109 -141 156 -241
111z m129 -113 c14 -19 21 -48 25 -102 l5 -76 -92 0 -91 0 0 30 c0 51 21 128
42 155 28 35 82 32 111 -7z"/>
<path d="M3278 2878 c-56 -15 -111 -68 -144 -140 -28 -61 -29 -68 -29 -218 0
-149 1 -157 28 -215 16 -33 38 -71 50 -84 56 -61 181 -80 264 -40 45 22 51 37
33 84 -9 24 -11 25 -34 10 -33 -22 -115 -29 -146 -13 -86 46 -117 327 -50 458
37 72 106 93 179 55 39 -20 47 -14 54 42 l5 42 -46 15 c-50 18 -108 19 -164 4z"/>
<path d="M1080 2520 l0 -360 55 0 55 0 0 165 0 165 85 0 85 0 0 -165 0 -165
55 0 55 0 0 360 0 360 -55 0 -55 0 0 -152 0 -153 -58 1 c-31 0 -69 1 -84 2
l-28 2 0 150 0 150 -55 0 -55 0 0 -360z"/>
<path d="M1656 2718 c-8 -182 -26 -327 -52 -405 -14 -44 -21 -53 -41 -53 -23
0 -23 -1 -23 -115 l0 -115 50 0 50 0 0 70 0 70 155 0 155 0 0 -70 0 -70 50 0
50 0 0 115 0 115 -30 0 -30 0 0 310 0 310 -164 0 -163 0 -7 -162z m224 -198
l0 -270 -93 0 -93 0 23 90 c22 90 43 272 43 388 l0 62 60 0 60 0 0 -270z"/>
<path d="M2660 2520 l0 -360 55 0 55 0 0 178 0 177 92 -172 93 -171 53 -4 c30
-2 57 -1 61 2 4 3 -36 86 -90 185 -54 99 -99 184 -99 189 0 4 38 80 85 167 47
87 85 160 85 163 0 3 -24 6 -54 6 l-55 0 -85 -162 -86 -163 0 163 0 162 -55 0
-55 0 0 -360z"/>
<path d="M1200 1665 c0 -8 -8 -15 -17 -16 -15 0 -15 -2 2 -9 16 -7 16 -9 4 -9
-9 -1 -20 -8 -23 -17 -3 -8 -10 -12 -16 -9 -5 3 -10 -2 -11 -12 0 -10 -2 -26
-4 -35 -3 -17 -89 -196 -119 -248 -21 -37 -46 -96 -46 -110 0 -8 8 -10 21 -7
27 7 49 -1 44 -16 -6 -18 -14 -285 -15 -454 l0 -153 -70 0 -70 0 0 230 c0 205
-2 229 -16 223 -13 -5 -13 -8 -2 -15 10 -7 10 -11 1 -15 -7 -2 -14 -17 -14
-31 -1 -27 -1 -27 -9 3 -7 27 -8 24 -10 -20 -1 -37 -4 -45 -10 -30 -7 18 -8
17 -15 -10 -4 -16 -13 -37 -21 -45 -7 -8 -16 -27 -19 -43 -4 -15 -16 -34 -27
-41 -11 -8 -17 -19 -13 -25 7 -13 -4 -56 -12 -47 -8 8 -27 -30 -43 -87 -13
-43 -24 -53 -53 -48 -5 1 -6 -3 -2 -9 3 -6 11 -7 17 -4 7 4 8 2 4 -5 -4 -7
-17 -9 -29 -6 -20 5 -20 5 2 -8 14 -8 19 -17 13 -21 -6 -3 -16 -23 -22 -44 -7
-20 -25 -58 -41 -83 -16 -25 -32 -61 -35 -80 -4 -19 -15 -46 -25 -61 -11 -14
-19 -33 -19 -41 0 -9 -8 -22 -18 -29 -9 -7 -18 -26 -19 -42 0 -16 -7 -32 -15
-37 -15 -10 2412 -12 2460 -3 18 4 29 10 27 14 -3 5 4 11 15 15 11 3 19 9 19
13 -5 30 4 50 22 55 15 4 20 11 16 21 -4 9 -3 16 2 16 4 0 13 12 19 26 7 14 8
23 2 19 -14 -9 -12 6 6 35 l15 25 -5 -25 c-5 -24 -4 -24 9 -6 18 24 20 50 3
40 -7 -4 -1 6 14 22 26 28 68 111 50 100 -5 -3 -9 8 -8 24 1 29 11 40 18 21 2
-5 9 -3 16 5 11 12 10 14 -3 14 -9 0 -26 7 -39 15 -13 9 -28 15 -32 14 -19 -5
-93 23 -134 50 -188 126 -165 475 38 562 98 42 222 44 315 5 34 -14 35 -16 39
-76 1 -34 2 -63 0 -65 -2 -1 -22 7 -45 18 -28 14 -68 22 -122 24 -69 3 -85 1
-119 -19 -62 -36 -81 -77 -81 -178 0 -97 15 -134 67 -172 37 -26 152 -38 184
-20 18 10 17 11 -6 20 l-25 10 30 7 c17 3 39 11 50 16 17 8 17 9 1 4 -16 -5
-17 -3 -6 10 7 8 9 15 4 15 -4 0 -3 5 4 12 7 7 12 21 12 33 0 11 11 38 25 60
13 22 25 51 26 65 1 23 2 23 9 -5 4 -16 8 -22 9 -12 0 9 7 26 14 37 10 17 9
22 -3 30 -8 5 -19 6 -25 3 -5 -4 -6 -2 -2 3 15 16 32 10 44 -16 15 -31 17 -11
3 26 -10 25 -9 26 7 13 11 -9 14 -10 9 -1 -11 18 3 52 20 52 8 0 13 4 10 9 -8
12 4 42 14 36 4 -3 10 4 13 15 3 11 1 18 -4 14 -17 -10 -9 8 31 78 22 39 40
74 40 78 0 5 5 21 12 35 13 28 30 34 22 8 -3 -10 3 -4 12 12 16 27 21 45 23
83 1 7 5 10 11 7 6 -4 7 5 4 23 -5 24 -2 30 14 34 15 4 19 12 15 26 -3 15 1
22 17 27 22 7 21 8 -11 28 -19 12 -40 27 -47 34 -26 25 -119 44 -257 53 -77 5
-584 10 -1127 10 -872 0 -988 -2 -988 -15z m-208 -457 c-7 -7 -12 -8 -12 -2 0
14 12 26 19 19 2 -3 -1 -11 -7 -17z m1520 -30 c104 -44 168 -157 168 -298 0
-203 -116 -325 -306 -323 -137 1 -239 86 -275 227 -11 45 -12 46 -50 46 l-39
0 0 -130 0 -130 -75 0 -75 0 0 310 0 310 75 0 75 0 0 -121 0 -120 42 3 c38 3
43 6 48 33 37 177 232 269 412 193z m-827 -293 l0 -310 -72 -3 -73 -3 0 251 0
250 -84 0 -83 0 -7 -31 c-3 -17 -6 -67 -6 -111 0 -91 -23 -216 -50 -268 -33
-64 -92 -100 -166 -100 l-34 0 0 70 c0 66 1 70 23 70 31 1 54 21 73 66 15 34
24 152 34 422 0 10 48 12 223 10 l222 -3 0 -310z"/>
<path d="M2305 1058 c-44 -34 -65 -92 -65 -178 0 -131 49 -200 142 -200 97 0
148 68 148 200 0 132 -51 200 -148 200 -35 0 -57 -6 -77 -22z"/>
<path d="M831 1054 c0 -11 3 -14 6 -6 3 7 2 16 -1 19 -3 4 -6 -2 -5 -13z"/>
<path d="M860 1050 c0 -5 5 -10 11 -10 5 0 7 5 4 10 -3 6 -8 10 -11 10 -2 0
-4 -4 -4 -10z"/>
<path d="M3306 885 c-3 -9 -6 -22 -5 -28 0 -7 5 -1 10 12 5 13 8 26 5 28 -2 2
-6 -3 -10 -12z"/>
<path d="M3250 715 c-7 -8 -9 -15 -6 -15 4 0 14 7 22 15 9 8 11 15 6 15 -5 0
-15 -7 -22 -15z"/>
<path d="M3208 713 c7 -3 16 -2 19 1 4 3 -2 6 -13 5 -11 0 -14 -3 -6 -6z"/>
<path d="M3148 543 c7 -3 16 -2 19 1 4 3 -2 6 -13 5 -11 0 -14 -3 -6 -6z"/>
</g>
</svg>
